<?xml version="1.0" encoding="UTF-8"?>
<svg xmlns="http://www.w3.org/2000/svg" xmlns:xlink="http://www.w3.org/1999/xlink" width="300pt" height="300pt" viewBox="0 0 300 300" version="1.1">
<g id="surface1">
<path style=" stroke:none;fill-rule:nonzero;fill:rgb(0%,0%,0%);fill-opacity:1;" d="M 196.875 84.375 C 198.117188 84.375 199.3125 83.882812 200.1875 83 L 255.066406 28.125 L 263.363281 28.125 C 265.304688 33.566406 270.460938 37.5 276.5625 37.5 C 284.316406 37.5 290.625 31.191406 290.625 23.4375 C 290.625 15.683594 284.316406 9.375 276.5625 9.375 C 270.460938 9.375 265.304688 13.308594 263.363281 18.75 L 253.125 18.75 C 251.882812 18.75 250.6875 19.242188 249.8125 20.125 L 194.933594 75 L 187.5 75 L 187.5 70.3125 C 187.5 62.558594 181.191406 56.25 173.4375 56.25 C 165.683594 56.25 159.375 62.558594 159.375 70.3125 L 159.375 84.375 L 135.464844 84.375 C 133.285156 73.691406 123.820312 65.625 112.5 65.625 C 106.632812 65.625 101.324219 67.871094 97.210938 71.445312 L 53.820312 38.316406 C 55.332031 35.21875 56.25 31.789062 56.25 28.125 C 56.25 15.203125 45.734375 4.6875 32.8125 4.6875 C 19.890625 4.6875 9.375 15.203125 9.375 28.125 C 9.375 41.046875 19.890625 51.5625 32.8125 51.5625 C 38.679688 51.5625 43.988281 49.316406 48.101562 45.742188 L 91.492188 78.871094 C 90.640625 80.609375 89.933594 82.425781 89.535156 84.371094 L 55.777344 84.371094 C 53.597656 73.691406 44.128906 65.625 32.8125 65.625 C 19.890625 65.625 9.375 76.140625 9.375 89.0625 C 9.375 101.984375 19.890625 112.5 32.8125 112.5 C 38.679688 112.5 43.988281 110.253906 48.101562 106.679688 L 64.929688 119.53125 L 48.101562 132.382812 C 43.988281 128.808594 38.679688 126.5625 32.8125 126.5625 C 19.890625 126.5625 9.375 137.078125 9.375 150 C 9.375 162.921875 19.890625 173.4375 32.8125 173.4375 C 38.679688 173.4375 43.988281 171.191406 48.101562 167.617188 L 64.929688 180.46875 L 48.101562 193.320312 C 43.988281 189.746094 38.679688 187.5 32.8125 187.5 C 19.890625 187.5 9.375 198.015625 9.375 210.9375 C 9.375 223.859375 19.890625 234.375 32.8125 234.375 C 44.128906 234.375 53.597656 226.308594 55.777344 215.625 L 89.535156 215.625 C 89.933594 217.570312 90.640625 219.382812 91.492188 221.125 L 48.101562 254.253906 C 43.988281 250.683594 38.679688 248.4375 32.8125 248.4375 C 19.890625 248.4375 9.375 258.953125 9.375 271.875 C 9.375 284.796875 19.890625 295.3125 32.8125 295.3125 C 45.734375 295.3125 56.25 284.796875 56.25 271.875 C 56.25 268.210938 55.332031 264.78125 53.820312 261.6875 L 97.210938 228.558594 C 101.324219 232.128906 106.632812 234.375 112.5 234.375 C 123.816406 234.375 133.285156 226.308594 135.464844 215.625 L 159.375 215.625 L 159.375 225 C 159.375 232.753906 165.683594 239.0625 173.4375 239.0625 C 181.191406 239.0625 187.5 232.753906 187.5 225 L 194.933594 225 L 249.8125 279.875 C 250.6875 280.757812 251.882812 281.25 253.125 281.25 L 263.363281 281.25 C 265.304688 286.691406 270.460938 290.625 276.5625 290.625 C 284.316406 290.625 290.625 284.316406 290.625 276.5625 C 290.625 268.808594 284.316406 262.5 276.5625 262.5 C 270.460938 262.5 265.304688 266.433594 263.363281 271.875 L 255.066406 271.875 L 200.1875 217 C 199.3125 216.117188 198.117188 215.625 196.875 215.625 L 187.5 215.625 L 187.5 201.5625 L 208.996094 201.5625 L 245.125 237.6875 C 246 238.570312 247.195312 239.0625 248.4375 239.0625 L 263.363281 239.0625 C 265.304688 244.503906 270.460938 248.4375 276.5625 248.4375 C 284.316406 248.4375 290.625 242.128906 290.625 234.375 C 290.625 226.621094 284.316406 220.3125 276.5625 220.3125 C 270.460938 220.3125 265.304688 224.246094 263.363281 229.6875 L 250.378906 229.6875 L 214.25 193.5625 C 213.375 192.679688 212.179688 192.1875 210.9375 192.1875 L 187.5 192.1875 L 187.5 178.125 L 227.746094 178.125 L 245.125 195.5 C 246 196.382812 247.195312 196.875 248.4375 196.875 L 263.363281 196.875 C 265.304688 202.316406 270.460938 206.25 276.5625 206.25 C 284.316406 206.25 290.625 199.941406 290.625 192.1875 C 290.625 184.433594 284.316406 178.125 276.5625 178.125 C 270.460938 178.125 265.304688 182.058594 263.363281 187.5 L 250.378906 187.5 L 233 170.125 C 232.125 169.242188 230.929688 168.75 229.6875 168.75 L 187.5 168.75 L 187.5 154.6875 L 263.363281 154.6875 C 265.304688 160.128906 270.460938 164.0625 276.5625 164.0625 C 284.316406 164.0625 290.625 157.753906 290.625 150 C 290.625 142.246094 284.316406 135.9375 276.5625 135.9375 C 270.460938 135.9375 265.304688 139.871094 263.363281 145.3125 L 187.5 145.3125 L 187.5 131.25 L 229.6875 131.25 C 230.929688 131.25 232.125 130.757812 233 129.875 L 250.378906 112.5 L 263.363281 112.5 C 265.304688 117.941406 270.460938 121.875 276.5625 121.875 C 284.316406 121.875 290.625 115.566406 290.625 107.8125 C 290.625 100.058594 284.316406 93.75 276.5625 93.75 C 270.460938 93.75 265.304688 97.683594 263.363281 103.125 L 248.4375 103.125 C 247.195312 103.125 246 103.617188 245.125 104.5 L 227.746094 121.875 L 187.5 121.875 L 187.5 107.8125 L 210.9375 107.8125 C 212.179688 107.8125 213.375 107.320312 214.25 106.4375 L 250.378906 70.3125 L 263.363281 70.3125 C 265.304688 75.753906 270.460938 79.6875 276.5625 79.6875 C 284.316406 79.6875 290.625 73.378906 290.625 65.625 C 290.625 57.871094 284.316406 51.5625 276.5625 51.5625 C 270.460938 51.5625 265.304688 55.496094 263.363281 60.9375 L 248.4375 60.9375 C 247.195312 60.9375 246 61.429688 245.125 62.3125 L 208.996094 98.4375 L 187.5 98.4375 L 187.5 84.375 Z M 276.5625 18.75 C 279.144531 18.75 281.25 20.851562 281.25 23.4375 C 281.25 26.023438 279.144531 28.125 276.5625 28.125 C 273.980469 28.125 271.875 26.023438 271.875 23.4375 C 271.875 20.851562 273.980469 18.75 276.5625 18.75 Z M 276.5625 271.875 C 279.144531 271.875 281.25 273.976562 281.25 276.5625 C 281.25 279.148438 279.144531 281.25 276.5625 281.25 C 273.980469 281.25 271.875 279.148438 271.875 276.5625 C 271.875 273.976562 273.980469 271.875 276.5625 271.875 Z M 276.5625 229.6875 C 279.144531 229.6875 281.25 231.789062 281.25 234.375 C 281.25 236.960938 279.144531 239.0625 276.5625 239.0625 C 273.980469 239.0625 271.875 236.960938 271.875 234.375 C 271.875 231.789062 273.980469 229.6875 276.5625 229.6875 Z M 276.5625 187.5 C 279.144531 187.5 281.25 189.601562 281.25 192.1875 C 281.25 194.773438 279.144531 196.875 276.5625 196.875 C 273.980469 196.875 271.875 194.773438 271.875 192.1875 C 271.875 189.601562 273.980469 187.5 276.5625 187.5 Z M 276.5625 145.3125 C 279.144531 145.3125 281.25 147.414062 281.25 150 C 281.25 152.585938 279.144531 154.6875 276.5625 154.6875 C 273.980469 154.6875 271.875 152.585938 271.875 150 C 271.875 147.414062 273.980469 145.3125 276.5625 145.3125 Z M 276.5625 103.125 C 279.144531 103.125 281.25 105.226562 281.25 107.8125 C 281.25 110.398438 279.144531 112.5 276.5625 112.5 C 273.980469 112.5 271.875 110.398438 271.875 107.8125 C 271.875 105.226562 273.980469 103.125 276.5625 103.125 Z M 276.5625 60.9375 C 279.144531 60.9375 281.25 63.039062 281.25 65.625 C 281.25 68.210938 279.144531 70.3125 276.5625 70.3125 C 273.980469 70.3125 271.875 68.210938 271.875 65.625 C 271.875 63.039062 273.980469 60.9375 276.5625 60.9375 Z M 135.464844 93.75 L 159.375 93.75 L 159.375 145.3125 L 135.464844 145.3125 C 133.285156 134.628906 123.820312 126.5625 112.5 126.5625 C 106.632812 126.5625 101.324219 128.808594 97.210938 132.382812 L 80.382812 119.53125 L 97.210938 106.679688 C 101.324219 110.253906 106.632812 112.5 112.5 112.5 C 123.816406 112.5 133.285156 104.433594 135.464844 93.75 Z M 98.4375 150 C 98.4375 142.246094 104.746094 135.9375 112.5 135.9375 C 120.253906 135.9375 126.5625 142.246094 126.5625 150 C 126.5625 157.753906 120.253906 164.0625 112.5 164.0625 C 104.746094 164.0625 98.4375 157.753906 98.4375 150 Z M 112.5 75 C 120.253906 75 126.5625 81.308594 126.5625 89.0625 C 126.5625 96.816406 120.253906 103.125 112.5 103.125 C 104.746094 103.125 98.4375 96.816406 98.4375 89.0625 C 98.4375 81.308594 104.746094 75 112.5 75 Z M 32.8125 42.1875 C 25.058594 42.1875 18.75 35.878906 18.75 28.125 C 18.75 20.371094 25.058594 14.0625 32.8125 14.0625 C 40.566406 14.0625 46.875 20.371094 46.875 28.125 C 46.875 35.878906 40.566406 42.1875 32.8125 42.1875 Z M 32.8125 103.125 C 25.058594 103.125 18.75 96.816406 18.75 89.0625 C 18.75 81.308594 25.058594 75 32.8125 75 C 40.566406 75 46.875 81.308594 46.875 89.0625 C 46.875 96.816406 40.566406 103.125 32.8125 103.125 Z M 53.820312 99.25 C 54.671875 97.507812 55.378906 95.695312 55.777344 93.75 L 89.535156 93.75 C 89.933594 95.695312 90.640625 97.507812 91.492188 99.25 L 72.65625 113.632812 Z M 91.492188 139.8125 C 90.640625 141.554688 89.933594 143.367188 89.535156 145.3125 L 55.777344 145.3125 C 55.378906 143.367188 54.671875 141.554688 53.820312 139.8125 L 72.65625 125.433594 Z M 32.8125 164.0625 C 25.058594 164.0625 18.75 157.753906 18.75 150 C 18.75 142.246094 25.058594 135.9375 32.8125 135.9375 C 40.566406 135.9375 46.875 142.246094 46.875 150 C 46.875 157.753906 40.566406 164.0625 32.8125 164.0625 Z M 53.820312 160.1875 C 54.671875 158.445312 55.378906 156.632812 55.777344 154.6875 L 89.535156 154.6875 C 89.933594 156.632812 90.640625 158.445312 91.492188 160.1875 L 72.65625 174.570312 Z M 89.535156 206.25 L 55.777344 206.25 C 55.378906 204.304688 54.671875 202.492188 53.820312 200.75 L 72.65625 186.371094 L 91.492188 200.75 C 90.640625 202.492188 89.933594 204.304688 89.535156 206.25 Z M 32.8125 225 C 25.058594 225 18.75 218.691406 18.75 210.9375 C 18.75 203.183594 25.058594 196.875 32.8125 196.875 C 40.566406 196.875 46.875 203.183594 46.875 210.9375 C 46.875 218.691406 40.566406 225 32.8125 225 Z M 32.8125 285.9375 C 25.058594 285.9375 18.75 279.628906 18.75 271.875 C 18.75 264.121094 25.058594 257.8125 32.8125 257.8125 C 40.566406 257.8125 46.875 264.121094 46.875 271.875 C 46.875 279.628906 40.566406 285.9375 32.8125 285.9375 Z M 112.5 225 C 104.746094 225 98.4375 218.691406 98.4375 210.9375 C 98.4375 203.183594 104.746094 196.875 112.5 196.875 C 120.253906 196.875 126.5625 203.183594 126.5625 210.9375 C 126.5625 218.691406 120.253906 225 112.5 225 Z M 135.464844 206.25 C 133.285156 195.566406 123.820312 187.5 112.5 187.5 C 106.632812 187.5 101.324219 189.746094 97.210938 193.320312 L 80.382812 180.46875 L 97.210938 167.617188 C 101.324219 171.191406 106.632812 173.4375 112.5 173.4375 C 123.816406 173.4375 133.285156 165.371094 135.464844 154.6875 L 159.375 154.6875 L 159.375 206.25 Z M 178.125 225 C 178.125 227.585938 176.019531 229.6875 173.4375 229.6875 C 170.855469 229.6875 168.75 227.585938 168.75 225 L 168.75 70.3125 C 168.75 67.726562 170.855469 65.625 173.4375 65.625 C 176.019531 65.625 178.125 67.726562 178.125 70.3125 Z M 178.125 225 "/>
<path style=" stroke:none;fill-rule:nonzero;fill:rgb(0%,0%,0%);fill-opacity:1;" d="M 140.625 107.8125 L 150 107.8125 L 150 117.1875 L 140.625 117.1875 Z M 140.625 107.8125 "/>
<path style=" stroke:none;fill-rule:nonzero;fill:rgb(0%,0%,0%);fill-opacity:1;" d="M 140.625 126.5625 L 150 126.5625 L 150 135.9375 L 140.625 135.9375 Z M 140.625 126.5625 "/>
<path style=" stroke:none;fill-rule:nonzero;fill:rgb(0%,0%,0%);fill-opacity:1;" d="M 140.625 164.0625 L 150 164.0625 L 150 173.4375 L 140.625 173.4375 Z M 140.625 164.0625 "/>
<path style=" stroke:none;fill-rule:nonzero;fill:rgb(0%,0%,0%);fill-opacity:1;" d="M 140.625 182.8125 L 150 182.8125 L 150 192.1875 L 140.625 192.1875 Z M 140.625 182.8125 "/>
</g>
</svg>
